# xmcd
#
# Track frame offsets: 
#        150
#        18813
#        45188
#        61844
#        87112
#        100202
#        116795
#        131027
#        140107
#        152810
#        175188
#        206272
#        228631
#        246749
#
# Disc length: 3702 seconds
#
# Revision: 2
# Processed by: cddbd v1.5.2PL0 Copyright (c) Steve Scherf et al.
# Submitted via: ExactAudioCopy v1.3
#
DISCID=bd0e740e
DTITLE=Various Artist - The Original MPS Sessions
DYEAR=2004
DGENRE=Jazz
TTITLE0=Orchester Erwin Lehn - Color
TTITLE1=Horst Jankowski - Speech Craft
TTITLE2=Dave Pike Set - Mathar
TTITLE3=George Duke - Leel
TTITLE4=Hans Koller - The Twister
TTITLE5=Fritz Pauer Trio - Terra Samba
TTITLE6=Hans Koller - Music For Pablo I
TTITLE7=George Duke - Theme From The Opera 'Tzina'
TTITLE8=Mary Lou Williams - Anima Christi
TTITLE9=Peter Herbholzheimer Rhythm Combination and Brass - The Ballad
TTITLE9=Of The Sad Young Man
TTITLE10=Volker Kriegel - Zoom
TTITLE11=Kenny Clarke - Francy Boland Big Band  - Um Grao De Areia
TTITLE12=Wolfgang Dauner - Take Off Your Clothes To Feel The Setting S
TTITLE12=un
TTITLE13=Don Menza - Morning Song
EXTD=YEAR: 2004
EXTT0=
EXTT1=
EXTT2=
EXTT3=
EXTT4=
EXTT5=
EXTT6=
EXTT7=
EXTT8=
EXTT9=
EXTT10=
EXTT11=
EXTT12=
EXTT13=
PLAYORDER=
